<svg xmlns="http://www.w3.org/2000/svg" xmlns:xlink="http://www.w3.org/1999/xlink" viewBox="0 0 89.46 92.76"><defs><style>.cls-1{fill:url(#linear-gradient);}.cls-2{fill:url(#linear-gradient-2);}.cls-3{fill:url(#linear-gradient-3);}.cls-4{fill:url(#linear-gradient-4);}.cls-5{fill:url(#linear-gradient-5);}.cls-6{fill:url(#linear-gradient-6);}.cls-7{fill:url(#linear-gradient-7);}</style><linearGradient id="linear-gradient" x1="24.11" x2="29.69" y1="37.67" y2="37.67" gradientUnits="userSpaceOnUse"><stop offset="0" stop-color="#00bbde"/><stop offset="1" stop-color="#00e6db"/></linearGradient><linearGradient id="linear-gradient-2" x1="26.82" x2="43.08" y1="45.77" y2="45.77" xlink:href="#linear-gradient"/><linearGradient id="linear-gradient-3" x1="25.81" x2="41.71" y1="55.81" y2="55.81" xlink:href="#linear-gradient"/><linearGradient id="linear-gradient-4" x1="59.62" x2="65.19" y1="37.67" y2="37.67" xlink:href="#linear-gradient"/><linearGradient id="linear-gradient-5" x1="46.23" x2="62.48" y1="45.77" y2="45.77" xlink:href="#linear-gradient"/><linearGradient id="linear-gradient-6" x1="47.59" x2="63.49" y1="55.81" y2="55.81" xlink:href="#linear-gradient"/><linearGradient id="linear-gradient-7" x2="89.46" y1="46.38" y2="46.38" xlink:href="#linear-gradient"/></defs><title>Asset 3</title><g id="Layer_2"><g id="Layer_1-2"><path d="M24.2 41.14a.5.5 0 0 0 .5.4h.1a.5.5 0 0 0 .38-.6c-.67-3.14 4.22-6.16 4.27-6.2a.5.5 0 1 0-.52-.84c-.23.1-5.55 3.4-4.73 7.24z" class="cls-1"/><path d="M27.94 48.16a.5.5 0 0 0 .42-.77c-.55-.87-.67-1.57-.38-2.1.55-1 2.46-1.4 3.9-1.55a2.78 2.78 0 0 0 0 2.47A4.7 4.7 0 0 0 35.5 49a28.27 28.27 0 0 0-1.37 2.5c-.25-.06-2.62-.65-4.16.48a3.3 3.3 0 0 0-1.26 2.72.5.5 0 0 0 .48.52.5.5 0 0 0 .5-.48 2.33 2.33 0 0 1 .85-1.94 4.3 4.3 0 0 1 3.18-.35c-.72 1.7-1.2 3.56-.6 4.74a2.34 2.34 0 0 0 2.2 1.2.5.5 0 0 0 0-1 1.42 1.42 0 0 1-1.28-.72c-.85-1.67 1.53-6 2.65-7.72a5 5 0 0 0 1.32-.3c.7-.26 1.3-.48 1.8-.66 2.68-.95 3.4-1.2 3.28-4.08a.5.5 0 0 0-1 0c.1 2.14 0 2.18-2.62 3.1-.52.18-1.12.4-1.83.67a3.74 3.74 0 0 1-4.8-1.92 1.6 1.6 0 0 1 .62-2.2 8.45 8.45 0 0 0 4.46-4.37l.34-.6a2 2 0 0 0 .2-1.6c-.58-1.94-3.65-3.6-4-3.78a.5.5 0 1 0-.47.88c.84.44 3.1 1.88 3.5 3.18a1 1 0 0 1-.1.84l-.33.6a7.48 7.48 0 0 1-3.93 3.92c-.9 0-4.9.15-6 2.14a3 3 0 0 0 .4 3.1.5.5 0 0 0 .44.28z" class="cls-2"/><path d="M35.6 62.6c-.65-.04-1.4-1.05-2.1-2-.93-1.24-1.88-2.53-3.16-2.7-2.1-.28-3.4-4.85-3.53-6.54-.04-.68 2.53-1.77 4.88-2.33a.5.5 0 0 0-.23-1c-1.36.32-5.78 1.5-5.63 3.38s1.5 7.08 4.4 7.47c.85.1 1.67 1.23 2.47 2.3s1.72 2.37 2.84 2.45h.13a2.15 2.15 0 0 0 1.5-.72 33.8 33.8 0 0 1 4.33-3.68.5.5 0 0 0-.56-.83 34.07 34.07 0 0 0-4.47 3.8 1.1 1.1 0 0 1-.86.4z" class="cls-3"/><path d="M59.86 34.73s4.94 3.05 4.27 6.2a.5.5 0 0 0 .4.6h.1a.5.5 0 0 0 .48-.4c.82-3.85-4.5-7.13-4.72-7.27a.5.5 0 0 0-.52.85z" class="cls-4"/><path d="M55.3 56.68a1.42 1.42 0 0 1-1.33.67.5.5 0 0 0 0 1 2.35 2.35 0 0 0 2.18-1.2c.6-1.2.13-3-.6-4.75a4.3 4.3 0 0 1 3.17.35 2.33 2.33 0 0 1 .85 1.95.5.5 0 0 0 .5.48.5.5 0 0 0 .48-.52 3.3 3.3 0 0 0-1.26-2.72c-1.55-1.13-3.9-.54-4.18-.47a28.28 28.28 0 0 0-1.3-2.47 4.7 4.7 0 0 0 3.6-2.73 2.78 2.78 0 0 0 0-2.45c1.46.15 3.35.54 3.9 1.53.3.52.16 1.23-.38 2.1a.5.5 0 0 0 .85.53 3 3 0 0 0 .4-3.1c-1.1-2-5.1-2.13-6-2.15a7.48 7.48 0 0 1-3.93-3.9l-.34-.62a1 1 0 0 1-.08-.83c.38-1.3 2.65-2.74 3.5-3.18a.5.5 0 1 0-.47-.9c-.35.2-3.42 1.85-4 3.8a2 2 0 0 0 .17 1.6l.34.6a8.46 8.46 0 0 0 4.45 4.38 1.6 1.6 0 0 1 .62 2.2 3.74 3.74 0 0 1-4.8 1.9c-.7-.26-1.32-.47-1.84-.66-2.6-.92-2.7-1-2.62-3.1a.5.5 0 1 0-1 0c-.1 2.88.6 3.13 3.3 4.08.5.18 1.1.4 1.8.66a5 5 0 0 0 1.3.3c1.52 2.17 3.46 6.12 2.7 7.62z" class="cls-5"/><path d="M47.68 58.52a.5.5 0 0 0 .14.7 33.8 33.8 0 0 1 4.33 3.67 2.15 2.15 0 0 0 1.5.7h.13c1.12-.08 2-1.22 2.85-2.43s1.6-2.17 2.47-2.3c2.9-.4 4.25-5.7 4.4-7.47s-4.28-3.06-5.64-3.4a.5.5 0 0 0-.23 1c2.34.55 4.92 1.64 4.87 2.33-.14 1.67-1.42 6.25-3.5 6.53-1.28.17-2.23 1.46-3.15 2.7-.72 1-1.46 2-2.12 2a1.1 1.1 0 0 1-.85-.4 34.07 34.07 0 0 0-4.47-3.8.5.5 0 0 0-.72.16z" class="cls-6"/><path d="M86.62 75.6a.5.5 0 0 0 0-.16V64.2a.5.5 0 0 0-.5-.5H64.54c.25-.47.5-.95.72-1.45 5.88-13.17 2.4-29.1-8.1-37.07a20.43 20.43 0 0 0-12-4.34V6.57a3.34 3.34 0 1 0-1 0v14.26a19.62 19.62 0 0 0-9.1 2.45V10.52a3.3 3.3 0 1 0-1 0v5.1H22.24v-5.1a3.34 3.34 0 1 0-1 0v5.58a.5.5 0 0 0 .5.5H34.1v7.26a23.4 23.4 0 0 0-1.95 1.3 25.12 25.12 0 0 0-3.15 2.9H3.8V17.32a.5.5 0 0 0 0-.15 3.3 3.3 0 1 0-.93 0 .5.5 0 0 0 0 .15v11.24a.5.5 0 0 0 .5.5h24.8C20.87 37.66 19 51 24 62.26c2.88 6.45 8.25 10.2 14.42 10.2a15.88 15.88 0 0 0 2.6-.23 13.35 13.35 0 0 0 3.2-.78V86.2a3.34 3.34 0 1 0 1 0V71.54a16.5 16.5 0 0 0 3 .7 15.6 15.6 0 0 0 2.55.2 14.56 14.56 0 0 0 3.5-.43v10.22a3.3 3.3 0 1 0 1 0v-5.1h11.95v5.1a3.34 3.34 0 1 0 1 0v-5.6a.5.5 0 0 0-.5-.5H55.37v-4.4a16 16 0 0 0 8.6-7h21.68v10.7a.5.5 0 0 0 0 .15 3.3 3.3 0 1 0 .94 0zM19.36 7.25a2.3 2.3 0 1 1 2.3 2.3 2.32 2.32 0 0 1-2.3-2.3zm12.92 0a2.3 2.3 0 1 1 2.3 2.3 2.32 2.32 0 0 1-2.3-2.3zM1 13.9a2.3 2.3 0 1 1 2.3 2.32 2.32 2.32 0 0 1-2.3-2.3zm69.1 71.6a2.3 2.3 0 1 1-2.3-2.3 2.32 2.32 0 0 1 2.3 2.3zm-12.92 0a2.3 2.3 0 1 1-2.3-2.3 2.32 2.32 0 0 1 2.3 2.3zM56.55 26a27.38 27.38 0 0 1 10.02 17 12.5 12.5 0 0 0-4.1-2.1 2.78 2.78 0 0 0 1-1.32.5.5 0 1 0-.94-.34 1.85 1.85 0 0 1-1.65 1.24 5.56 5.56 0 0 1-4.78-2.4c-.6-.9-.27-1.3 1-2.3s2.46-2 2.32-4.15c-.22-3.33-4.32-4.26-6.07-4.5a1.56 1.56 0 0 0 0-1.26c-.93-1.9-6.15-2.2-8.07-2.25 0-1 0-1.5.07-1.82a19.48 19.48 0 0 1 11.2 4.2zM42.3 3.3a2.3 2.3 0 1 1 2.3 2.32 2.32 2.32 0 0 1-2.3-2.3zM32.75 26A19.47 19.47 0 0 1 44 21.83c0 .3 0 .86.07 1.82C42.2 23.7 37 24 36 25.9a1.56 1.56 0 0 0 0 1.26c-1.75.25-5.85 1.18-6.07 4.5-.14 2.12 1.22 3.25 2.32 4.15s1.57 1.43 1 2.33a5.58 5.58 0 0 1-4.78 2.4 1.85 1.85 0 0 1-1.65-1.25.5.5 0 1 0-.94.34 2.78 2.78 0 0 0 1 1.32 12.5 12.5 0 0 0-4.1 2.1A27.38 27.38 0 0 1 32.75 26zM44 70.5a11.08 11.08 0 0 1-3.13.76 14.17 14.17 0 0 1-4.06.08.5.5 0 0 0 .1-.34c-.1-.8 3-3.5 6-5.52a.5.5 0 1 0-.57-.83c-1.57 1.07-6.67 4.7-6.44 6.48a.48.48 0 0 0 0 .08 14 14 0 0 1-7.46-4.13 2.65 2.65 0 0 0 2.05-1 2.86 2.86 0 0 0 .34-2c.32.24.66.48 1 .7a8.84 8.84 0 0 0 4.6 1.68c2.46 0 4.3-1.85 6.54-5 1-1.4 1.2-2.58.7-3.53-1.14-2.1-5.4-2-5.9-2a.5.5 0 0 0 0 1c1.15 0 4.27.16 5 1.48.33.6.12 1.43-.62 2.48-3.58 5.1-5.6 5.75-9.78 3.08-4.84-3.08-7.35-8.68-7.26-16.2a.5.5 0 0 0-.5-.52.5.5 0 0 0-.5.5C24 54.2 25.9 59.4 29.47 62.83c.25.55.7 1.9.2 2.65-.32.46-1 .66-2.1.6A18.74 18.74 0 0 1 25 61.85a32.1 32.1 0 0 1-2.58-16.3.5.5 0 0 0 0-.17c.12-2 4.33-3.45 6-3.86h.38A6.7 6.7 0 0 0 34 38.7c1.2-1.7-.07-2.8-1.1-3.7s-2.07-1.7-2-3.3c.2-2.86 4.5-3.52 5.64-3.64 1.14 1.54.72 1.93.12 2.44a1.68 1.68 0 0 0-.8 1.8 5.65 5.65 0 0 0 2.45 3.38 4 4 0 0 0 2 .53 5 5 0 0 0 1.35-.18.5.5 0 1 0-.27-1 3.25 3.25 0 0 1-2.58-.24 4.62 4.62 0 0 1-2-2.78c-.07-.27 0-.4.47-.78a2.35 2.35 0 0 0 .93-1.4c1.26-2.08 4.23-2 4.25-2a.5.5 0 0 0 .53-.46.5.5 0 0 0-.47-.53 6.38 6.38 0 0 0-4.5 1.75 6.65 6.65 0 0 0-.83-1.32c-.44-.57-.3-.84-.27-.92.53-1.08 4.36-1.62 7.2-1.7q0 .57 0 1.27c0 2.38-.06 5.93 0 11.24a5.7 5.7 0 0 0-3.7 1 2.22 2.22 0 0 0-.74 1.72c0 1.58 0 4.24-.84 4.84-.08.05-.3.22-.88 0a.5.5 0 0 0-.33.94 2.47 2.47 0 0 0 .83.15 1.64 1.64 0 0 0 1-.3c1.18-.84 1.27-3.06 1.26-5.67a1.24 1.24 0 0 1 .4-1 4.83 4.83 0 0 1 3-.7c0 2.47 0 5.3 0 8.53q0 2.7 0 5.78a8.68 8.68 0 0 0-3.84.6c-1.15.52-3-.8-3.6-1.35a.5.5 0 1 0-.66.73 6.67 6.67 0 0 0 3.67 1.72 2.37 2.37 0 0 0 1-.2 7.82 7.82 0 0 1 3.4-.5c0 .82 0 1.67 0 2.53C44 63.38 44 69.34 44 70.5zm3.2 18.95a2.3 2.3 0 1 1-2.3-2.3 2.32 2.32 0 0 1 2.26 2.3zm6.23-18.25a.48.48 0 0 0 0-.06c.23-1.8-4.87-5.4-6.44-6.48a.5.5 0 0 0-.57.83c3 2 6.1 4.72 6 5.5a.5.5 0 0 0 .08.33 14.38 14.38 0 0 1-4.12-.08 10.74 10.74 0 0 1-3.06-.75c0-1-.07-7-.13-14.5 0-.88 0-1.72 0-2.54a7.83 7.83 0 0 1 3.4.5 2.37 2.37 0 0 0 1 .2 6.67 6.67 0 0 0 3.67-1.72.5.5 0 1 0-.67-.74c-.6.55-2.43 1.87-3.6 1.3a8.68 8.68 0 0 0-3.84-.6q0-3.08 0-5.77c0-3.23 0-6.06 0-8.53a4.82 4.82 0 0 1 3 .7 1.24 1.24 0 0 1 .4 1c0 2.6.1 4.82 1.27 5.66a1.64 1.64 0 0 0 1 .3 2.47 2.47 0 0 0 .82-.15.5.5 0 0 0-.33-.93c-.56.2-.8 0-.88 0-.85-.6-.84-3.25-.84-4.84a2.22 2.22 0 0 0-.74-1.72 5.7 5.7 0 0 0-3.7-1c0-5.3 0-8.85 0-11.22q0-.7 0-1.26c2.84.07 6.68.6 7.2 1.7 0 .08.17.35-.27.9a6.65 6.65 0 0 0-.84 1.33 6.38 6.38 0 0 0-4.56-1.63.5.5 0 1 0 .06 1s3-.15 4.25 2a2.35 2.35 0 0 0 1 1.38c.44.38.54.5.47.78a4.62 4.62 0 0 1-2 2.78 3.26 3.26 0 0 1-2.58.24.5.5 0 1 0-.28 1 5 5 0 0 0 1.34.2 4 4 0 0 0 2-.54 5.65 5.65 0 0 0 2.44-3.4 1.68 1.68 0 0 0-.8-1.78c-.58-.5-1-.9.13-2.44 1.13.12 5.45.78 5.64 3.63.1 1.6-.94 2.47-2 3.3S54.1 37 55.27 38.7a6.7 6.7 0 0 0 5.2 2.84h.37c1.7.4 5.92 1.84 6 3.86a.5.5 0 0 0 0 .16 32.1 32.1 0 0 1-2.58 16.32 18.7 18.7 0 0 1-2.6 4.25c-1.07.05-1.78-.14-2.1-.62-.5-.73-.06-2.1.2-2.64 3.6-3.44 5.43-8.62 5.35-15.2a.5.5 0 0 0-.5-.48.5.5 0 0 0-.48.5c.1 7.53-2.42 13.14-7.26 16.22-4.2 2.66-6.2 2-9.78-3.08-.74-1.05-.95-1.9-.63-2.48.7-1.3 3.82-1.5 5-1.48a.5.5 0 0 0 0-1c-.47 0-4.75-.08-5.88 2-.52 1-.28 2.14.7 3.53 2.22 3.17 4.07 5 6.52 5a8.86 8.86 0 0 0 4.6-1.7c.35-.2.68-.44 1-.7a2.86 2.86 0 0 0 .35 2 2.65 2.65 0 0 0 2.05 1 14 14 0 0 1-7.37 4.2zm32.72 10a2.3 2.3 0 1 1 2.3-2.3 2.32 2.32 0 0 1-2.3 2.27z" class="cls-7"/></g></g></svg>