<svg xmlns="http://www.w3.org/2000/svg" viewBox="0 0 100 72"><defs><style>.cls-1{fill:url(#linear-gradient);}.cls-2{fill:none;}</style><linearGradient id="linear-gradient" x1="93.82" x2="-36.18" y1="18.72" y2="75.72" gradientUnits="userSpaceOnUse"><stop offset="0" stop-color="#00bbde"/><stop offset="1" stop-color="#00e6db"/></linearGradient></defs><title>iot</title><g id="Layer_2"><g id="Layer_1-2"><path d="M98.53 34.88a3.33 3.33 0 1 0-3.83 3.27v6.7H69a10 10 0 0 0-4.55-2.92 6.67 6.67 0 0 0 .77-3.1 6.82 6.82 0 0 0-6.3-6.78V13.23h18a3.3 3.3 0 1 0 0-1h-19v19.82a6.62 6.62 0 0 0-3.4 1.22 13.18 13.18 0 0 0-6.66-6.46v-20H38.7a3.34 3.34 0 1 0 0 1h8.15v18.62a13.1 13.1 0 0 0-15.15 5.13H12v-8.2a3.32 3.32 0 1 0-1 0v9.2h20.1a13.08 13.08 0 0 0-1.6 6.3c0 .26 0 .5 0 .76a11.55 11.55 0 0 0-3.5 2.74H3.85V52a3.33 3.33 0 1 0 1 0v-8.66h20.4a11.53 11.53 0 0 0 9.48 18.1h26.84a10 10 0 0 0 8.23-15.6h17.9v9a3.32 3.32 0 1 0 1 0v-9h7v-7.7a3.32 3.32 0 0 0 2.83-3.26zM80.18 10.45a2.33 2.33 0 1 1-2.33 2.33 2.33 2.33 0 0 1 2.33-2.33zm-44.75-.73a2.33 2.33 0 1 1 2.32-2.33 2.33 2.33 0 0 1-2.32 2.32zM9.2 20.07a2.32 2.32 0 1 1 2.33 2.33 2.33 2.33 0 0 1-2.33-2.33zM6.67 55.3A2.32 2.32 0 1 1 4.35 53a2.33 2.33 0 0 1 2.32 2.3zm61.24 2.5a8.94 8.94 0 0 1-6.33 2.64H34.73a10.54 10.54 0 0 1-4.47-20.1l.3-.14v-.34c0-.34 0-.7 0-1a12.13 12.13 0 0 1 23.37-4.6l.27.66.53-.47A5.63 5.63 0 0 1 58.4 33a5.83 5.83 0 0 1 5.82 5.8 5.7 5.7 0 0 1-.92 3.2l-.4.6.7.16a9 9 0 0 1 4.3 15.08zm22.63.3a2.32 2.32 0 1 1-2.32-2.32 2.33 2.33 0 0 1 2.33 2.34zm4.67-20.9a2.33 2.33 0 1 1 2.33-2.33 2.33 2.33 0 0 1-2.33 2.33z" class="cls-1"/><path d="M0 0h100v72H0z" class="cls-2"/></g></g></svg>