<svg xmlns="http://www.w3.org/2000/svg" xmlns:xlink="http://www.w3.org/1999/xlink" viewBox="0 0 100 72"><defs><style>.cls-1{fill:url(#linear-gradient);}.cls-2{fill:url(#linear-gradient-2);}.cls-3{fill:url(#linear-gradient-3);}.cls-4{fill:url(#linear-gradient-4);}.cls-5{fill:url(#linear-gradient-5);}.cls-6{fill:url(#linear-gradient-6);}.cls-7{fill:url(#linear-gradient-7);}.cls-8{fill:url(#linear-gradient-8);}.cls-9{fill:url(#linear-gradient-9);}.cls-10{fill:none;}</style><linearGradient id="linear-gradient" x1="78.38" x2="-13.28" y1="-7.92" y2="78.5" gradientUnits="userSpaceOnUse"><stop offset="0" stop-color="#00bbde"/><stop offset="1" stop-color="#00e6db"/></linearGradient><linearGradient id="linear-gradient-2" x1="84.56" x2="-7.1" y1="-1.38" y2="85.05" xlink:href="#linear-gradient"/><linearGradient id="linear-gradient-3" x1="70.85" x2="-20.81" y1="-15.91" y2="70.51" xlink:href="#linear-gradient"/><linearGradient id="linear-gradient-4" x1="78.7" x2="-12.96" y1="-7.59" y2="78.83" xlink:href="#linear-gradient"/><linearGradient id="linear-gradient-5" x1="95.35" x2="3.68" y1="10.07" y2="96.49" xlink:href="#linear-gradient"/><linearGradient id="linear-gradient-6" x1="103.19" x2="11.53" y1="18.39" y2="104.81" xlink:href="#linear-gradient"/><linearGradient id="linear-gradient-7" x1="80.76" x2="-10.9" y1="-5.4" y2="81.02" xlink:href="#linear-gradient"/><linearGradient id="linear-gradient-8" x1="80.76" x2="-10.9" y1="-5.4" y2="81.02" xlink:href="#linear-gradient"/><linearGradient id="linear-gradient-9" x1="89.44" x2="-2.22" y1="3.81" y2="90.23" xlink:href="#linear-gradient"/></defs><title>hr</title><g id="Layer_2"><g id="Layer_1-2"><path d="M50.1 24.77a6 6 0 1 0-6-6 6 6 0 0 0 6 6zm-3.65-9.67a5.16 5.16 0 1 1-1.5 3.65 5.14 5.14 0 0 1 1.5-3.65z" class="cls-1"/><path d="M50.1 26.08a10.7 10.7 0 0 0-9.26 5.35l.76.44a9.82 9.82 0 0 1 17 0l.76-.44a10.7 10.7 0 0 0-9.26-5.35z" class="cls-2"/><path d="M24.75 33.58a6 6 0 1 0-6-6 6 6 0 0 0 6 6zM21.1 23.9a5.16 5.16 0 1 1-1.5 3.66 5.14 5.14 0 0 1 1.5-3.65z" class="cls-3"/><path d="M34.57 45.58h.87a10.7 10.7 0 0 0-21.4 0h.88a9.82 9.82 0 0 1 19.64 0z" class="cls-4"/><path d="M76.8 33.58a6 6 0 1 0-6-6 6 6 0 0 0 6 6zm-3.65-9.67a5.16 5.16 0 1 1-1.5 3.66 5.14 5.14 0 0 1 1.5-3.65z" class="cls-5"/><path d="M76.8 34.9a10.7 10.7 0 0 0-10.7 10.68h.9a9.82 9.82 0 0 1 19.64 0h.87a10.7 10.7 0 0 0-10.7-10.7z" class="cls-6"/><path d="M55.62 7.56A16.86 16.86 0 1 0 67 23.5 16.84 16.84 0 0 0 55.62 7.57zm9.6 21.18a16 16 0 1 1 .9-5.23 16 16 0 0 1-.9 5.24z" class="cls-7"/><path d="M54.6 10.5A13.75 13.75 0 1 0 63.1 28l-.42-.14.4.14a13.74 13.74 0 0 0-8.5-17.5zm7.67 17.22a12.87 12.87 0 1 1 .73-4.2 12.88 12.88 0 0 1-.73 4.2z" class="cls-8"/><path d="M31.43 60.23a3.34 3.34 0 0 0 2.07 4.26 3.34 3.34 0 0 0 4.24-2l9.9-21.5-6.32-2.2zm15-18.76l-9.5 20.66a2.47 2.47 0 0 1-3.15 1.53l-.14.4.14-.4a2.47 2.47 0 0 1-1.53-3.13l9.53-20.7z" class="cls-9"/><path d="M0 0h100v72H0z" class="cls-10"/></g></g></svg>